<?xml version="1.0" encoding="UTF-8" standalone="no"?>
<!-- Created with Inkscape (http://www.inkscape.org/) -->

<svg
   width="16"
   height="16"
   viewBox="0 0 4.2333333 4.2333332"
   version="1.1"
   id="svg1"
   xml:space="preserve"
   inkscape:version="1.4 (86a8ad7, 2024-10-11)"
   sodipodi:docname="search.svg"
   xmlns:inkscape="http://www.inkscape.org/namespaces/inkscape"
   xmlns:sodipodi="http://sodipodi.sourceforge.net/DTD/sodipodi-0.dtd"
   xmlns="http://www.w3.org/2000/svg"
   xmlns:svg="http://www.w3.org/2000/svg"><sodipodi:namedview
     id="namedview1"
     pagecolor="#505050"
     bordercolor="#eeeeee"
     borderopacity="1"
     inkscape:showpageshadow="0"
     inkscape:pageopacity="0"
     inkscape:pagecheckerboard="0"
     inkscape:deskcolor="#505050"
     inkscape:document-units="mm"
     inkscape:zoom="11.313709"
     inkscape:cx="6.5849319"
     inkscape:cy="6.3197668"
     inkscape:window-width="1284"
     inkscape:window-height="745"
     inkscape:window-x="68"
     inkscape:window-y="-8"
     inkscape:window-maximized="1"
     inkscape:current-layer="g8"
     showgrid="false" /><defs
     id="defs1" /><g
     inkscape:label="Capa 1"
     inkscape:groupmode="layer"
     id="layer1"><g
       transform="matrix(0,-0.00244895,-0.0025026,0,31.729849,31.672896)"
       fill="#9e9e9e"
       stroke="none"
       id="g8"
       style="fill:#ffffff;fill-opacity:1;stroke:#0e0e0e;stroke-width:201.969;stroke-dasharray:none;stroke-opacity:1"><g
         id="g1"
         transform="matrix(0.26639913,0,0,0.26639913,9493.089,9305.5064)"><path
           d="m 10691.259,12599.3 c -36.918,-1.983 -93.295,-7.433 -124.725,-11.891 -31.431,-4.46 -67.351,-9.413 -79.823,-10.404 -12.473,-1.485 -36.919,-6.44 -54.88,-10.404 -17.96,-4.458 -37.916,-8.917 -44.9,-9.908 -83.816,-14.367 -250.448,-66.881 -367.191,-116.423 -54.879,-22.789 -168.1293,-78.275 -196.0675,-95.615 -9.9782,-6.439 -34.9231,-21.303 -55.378,-33.193 -82.3183,-47.56 -219.0169,-145.653 -279.3838,-199.652 -59.8679,-53.506 -216.0236,-213.03 -244.4608,-248.7 -3.9912,-5.449 -19.956,-25.265 -34.9231,-44.091 -15.4658,-19.32 -34.9229,-44.587 -42.9053,-56.973 -8.4813,-12.386 -29.9339,-43.597 -47.8944,-69.358 -28.4372,-41.12 -123.7271,-202.625 -123.7271,-209.562 0,-1.485 -8.4813,-21.303 -19.4569,-44.092 -65.3559,-139.706 -97.2856,-229.872 -136.1998,-381.964 -18.4592,-73.818 -25.9427,-116.423 -38.9141,-218.975 -13.4703,-111.964 -19.956,-194.203 -19.956,-260.092 0,-80.258 18.4592,-289.819 29.934,-341.838 2.9934,-12.385 8.4813,-39.138 12.4724,-59.45 11.9736,-59.449 25.9428,-119.395 34.9229,-148.624 29.4352,-97.1018 55.378,-170.4234 81.8197,-230.3687 4.989,-10.899 11.9736,-27.7432 15.4658,-37.1561 28.4373,-71.8353 128.2172,-246.2216 198.5622,-347.2864 88.3052,-126.3311 260.9245,-311.1212 367.1901,-393.3603 10.9757,-7.9266 31.9296,-25.2661 47.3954,-37.6515 71.3428,-58.459 230.4918,-158.0376 337.2563,-211.0472 132.707,-66.3857 314.306,-132.2759 431.549,-157.5422 3.99,-0.9908 21.95,-4.9542 39.911,-9.4129 17.96,-3.9633 39.413,-8.422 47.396,-9.9083 60.865,-10.8991 108.261,-18.3304 117.74,-18.8258 6.485,0 24.446,-2.477 39.413,-4.954 67.351,-10.8993 237.476,-16.3489 337.755,-10.4039 54.38,2.9725 110.257,6.9358 123.728,8.9175 13.969,1.9817 34.922,4.4588 47.394,5.4496 47.396,4.9541 112.253,16.8441 212.033,39.1378 34.923,7.9268 113.749,29.725 134.703,37.1562 13.969,4.9542 33.926,11.8901 44.901,15.358 20.455,5.9448 104.27,38.1468 139.692,53.5049 10.976,4.954 27.938,11.8899 37.418,15.8532 31.43,11.89 150.668,73.817 204.049,106.0189 73.838,44.5875 188.086,122.3678 217.021,148.6248 2.994,2.9725 17.96,14.8625 32.928,26.257 79.325,61.4316 212.531,193.2123 274.394,271.4879 8.482,10.4038 23.947,29.2296 33.926,41.1195 9.978,11.89 31.431,39.6333 46.897,61.9271 15.465,22.2937 32.428,45.5782 37.417,52.514 18.459,24.2754 61.365,93.6336 61.365,98.5876 0,2.9726 2.494,5.4496 4.989,5.4496 2.993,0 4.988,1.9818 4.988,4.9543 0,2.477 7.484,16.3486 16.465,30.7158 15.964,24.7708 93.294,177.3588 93.294,183.7992 0,1.9816 5.489,14.8625 11.973,29.2296 6.487,14.367 18.959,46.569 27.939,70.8444 8.98,24.7709 18.459,49.0463 20.455,54.4957 7.982,16.8442 40.41,128.8077 54.878,188.2577 36.919,148.625 61.864,394.352 53.383,527.618 -6.985,115.432 -14.469,205.102 -18.958,227.891 -2.495,12.386 -6.985,39.138 -9.978,59.45 -2.994,20.312 -9.978,55.982 -15.466,79.267 -5.488,23.284 -14.468,60.936 -19.957,84.221 -8.979,36.661 -21.951,79.761 -46.896,156.055 -9.479,28.239 -31.431,85.212 -42.407,108.992 -4.988,10.9 -13.969,31.211 -19.955,44.587 -83.317,187.763 -182.099,342.333 -323.288,507.802 -31.43,37.155 -165.633,170.423 -205.047,203.616 -17.462,14.862 -34.424,29.23 -37.418,31.706 -14.467,12.881 -63.359,50.036 -126.72,95.12 -50.887,35.67 -203.052,126.331 -252.942,150.112 -18.958,8.916 -48.393,22.788 -64.857,30.715 -96.786,47.56 -312.81,120.386 -417.081,140.203 -21.951,4.459 -66.852,12.881 -76.83,14.862 -28.936,5.945 -43.903,7.927 -87.308,12.881 -25.942,2.477 -64.358,7.43 -84.812,9.908 -50.389,6.936 -231.49,9.414 -314.307,4.46 z m 269.406,-250.186 c 99.78,-8.918 161.144,-17.836 238.474,-35.174 768.305,-170.918 1332.561,-810.996 1398.416,-1586.817 7.483,-87.69 2.993,-297.746 -7.484,-374.04 -28.437,-198.662 -79.325,-368.0934 -162.142,-540.4981 -213.529,-443.3972 -618.636,-789.6928 -1090.595,-931.3817 -249.949,-74.8079 -520.851,-95.6153 -775.789,-58.9545 -716.9188,103.0464 -1301.1303,625.2148 -1479.2375,1322.2643 -41.4086,162.497 -54.3801,281.396 -50.8878,470.645 3.4923,172.405 18.9582,290.314 56.3757,427.545 112.2525,411.194 373.1769,772.848 731.3869,1012.134 331.2697,221.946 748.8487,329.451 1141.4827,294.277 z"
           id="path1"
           style="fill:#ffffff;fill-opacity:1;stroke:#0e0e0e;stroke-width:100.41;stroke-dasharray:none;stroke-opacity:1" /><path
           d="m 9059.857,10878.225 c 0,-0.992 3.9912,-4.955 8.9802,-8.423 7.4835,-6.44 7.9824,-5.945 1.4966,1.981 -6.4856,7.927 -10.4768,10.405 -10.4768,6.442 z"
           id="path7"
           style="fill:#ffffff;fill-opacity:1;stroke:#0e0e0e;stroke-width:100.41;stroke-dasharray:none;stroke-opacity:1" /><path
           d="m 8946.6067,9466.2892 c -76.8304,-24.7707 -121.2326,-84.2207 -121.2326,-161.5055 0,-45.0829 13.9692,-81.2482 43.9032,-114.4411 l 22.9493,-25.7616 -66.8525,-63.4132 c -36.9185,-35.1745 -68.8481,-63.4133 -70.8438,-63.9087 -1.9955,0 -22.4504,19.3212 -45.8987,43.5966 l -42.4064,43.1013 -88.8042,-87.6887 C 8528.5289,8988.213 8074.53,8542.3387 7569.1447,8044.9412 l -919.971,-903.6382 -24.945,-2.9727 c -125.2237,-14.8624 -191.0786,-165.9643 -115.2457,-264.5519 9.479,-12.3854 110.7556,-121.8723 224.5048,-242.2584 187.0873,-198.6617 210.5356,-221.4508 237.9751,-234.8271 113.7491,-55.4865 242.9643,22.7891 242.9643,147.1386 v 30.7157 l 746.8526,734.2062 c 410.5945,404.2593 862.5976,848.6472 1003.7862,988.8501 l 256.9333,254.1481 -48.3932,48.0554 -48.3933,48.5507 67.3515,62.4225 67.3514,62.4223 18.4594,-17.3395 c 31.9295,-30.2204 66.8525,-43.1012 115.7447,-43.1012 35.4218,0 46.8965,1.9817 70.3449,12.8808 96.7866,45.0828 128.7161,168.4414 65.3559,251.1759 -9.4792,12.8807 -68.3494,76.7893 -130.2129,142.1843 -62.3625,65.3948 -155.1578,163.9826 -207.0434,219.4691 -80.8217,85.7069 -98.7822,102.5511 -125.2238,115.4319 -36.9186,17.8351 -87.8064,23.2846 -120.7338,12.3854 z"
           id="path8"
           style="fill:#ffffff;fill-opacity:1;stroke:#0e0e0e;stroke-width:100.41;stroke-dasharray:none;stroke-opacity:1" /></g></g></g></svg>
