<?xml version="1.0" encoding="UTF-8" standalone="no"?>
<!-- Uploaded to: SVG Repo, www.svgrepo.com, Generator: SVG Repo Mixer Tools -->

<svg
   width="16"
   height="16"
   viewBox="0 0 1.28 1.28"
   aria-hidden="true"
   role="img"
   class="iconify iconify--emojione"
   preserveAspectRatio="xMidYMid"
   version="1.1"
   id="svg1"
   sodipodi:docname="static.svg"
   inkscape:version="1.4 (86a8ad7, 2024-10-11)"
   xmlns:inkscape="http://www.inkscape.org/namespaces/inkscape"
   xmlns:sodipodi="http://sodipodi.sourceforge.net/DTD/sodipodi-0.dtd"
   xmlns="http://www.w3.org/2000/svg"
   xmlns:svg="http://www.w3.org/2000/svg">
  <defs
     id="defs1">
    <rect
       x="-3.914778"
       y="246.63103"
       width="497.17682"
       height="598.96106"
       id="rect1" />
  </defs>
  <sodipodi:namedview
     id="namedview1"
     pagecolor="#505050"
     bordercolor="#eeeeee"
     borderopacity="1"
     inkscape:showpageshadow="0"
     inkscape:pageopacity="0"
     inkscape:pagecheckerboard="0"
     inkscape:deskcolor="#505050"
     showgrid="false"
     inkscape:zoom="16.348309"
     inkscape:cx="8.1048139"
     inkscape:cy="7.0037826"
     inkscape:window-width="1286"
     inkscape:window-height="745"
     inkscape:window-x="66"
     inkscape:window-y="-8"
     inkscape:window-maximized="1"
     inkscape:current-layer="svg1" />
  <path
     d="m 0.3139949,0.83760901 q 0.0292239,0 0.0542729,0.0111329 0.025049,0.010437 0.04314,0.029224 0.0187868,0.0180905 0.0292239,0.0431399 0.0104371,0.0250488 0.0104371,0.0535769 0,0.0278323 -0.0104371,0.0528816 -0.0104371,0.024353 -0.0292239,0.04314 -0.018091,0.018091 -0.04314,0.028528 -0.0250491,0.011133 -0.0542729,0.011133 -0.0278323,0 -0.0521855,-0.011133 Q 0.23745615,1.0887953 0.21936518,1.0707042 0.2012742,1.0519172 0.1908371,1.0275643 0.1804,1.002515 0.1804,0.97468272 q 0,-0.0285281 0.0104371,-0.0535769 0.0104371,-0.0250493 0.0285281,-0.0431399 0.018091,-0.018787 0.0424442,-0.029224 0.0243532,-0.0111329 0.0521855,-0.0111329 z"
     id="text5"
     style="-inkscape-font-specification:'Consolas Bold';fill:#ffffff;stroke-width:0.224412;stroke-linecap:round;stroke-linejoin:round;paint-order:stroke markers fill"
     aria-label="." />
  <path
     d="m 1.1796138,0.81951789 q 0,0.0744515 -0.027832,0.1294202 -0.027136,0.0549687 -0.076539,0.0911509 -0.049402,0.035486 -0.11759134,0.052881 -0.0681891,0.017395 -0.14890268,0.017395 -0.0716681,0 -0.13846553,-0.00835 Q 0.60348581,1.0936659 0.53808,1.074183 V 0.90510234 q 0.0320071,0.0111329 0.0667975,0.020874 0.0347903,0.009741 0.0695807,0.0173952 0.0354861,0.006958 0.0702764,0.0111329 0.0347904,0.004174 0.0674933,0.004174 0.0487065,0 0.082801,-0.008349 0.0340946,-0.00835 0.0556645,-0.0229617 0.02157,-0.0146123 0.0313113,-0.0347905 0.009741,-0.0201782 0.009741,-0.0445316 0,-0.0333987 -0.0194826,-0.0556645 Q 0.9534763,0.76941944 0.922165,0.75202424 0.8908537,0.73462904 0.8504969,0.72071314 0.810836,0.70679674 0.7690875,0.69079324 0.7280349,0.67478974 0.6876781,0.65461154 0.6480171,0.63443274 0.6167058,0.60451344 0.5853945,0.57459354 0.5659119,0.53354124 0.5471251,0.49179254 0.5471251,0.43334507 q 0,-0.0535775 0.0194826,-0.10158793 0.0194826,-0.048011 0.061231,-0.0834968 0.0417484,-0.0361823 0.10715427,-0.0570563 0.0654058,-0.0215699 0.15794812,-0.0215699 0.0271364,0 0.0563604,0.002785 0.0299197,0.00209 0.0584477,0.006262 0.029224,0.003479 0.055665,0.009046 0.027136,0.004869 0.049402,0.010437 v 0.1565566 q -0.022266,-0.00835 -0.048707,-0.0153082 -0.026441,-0.006958 -0.054969,-0.0118282 -0.0278322,-0.005563 -0.0563603,-0.00835 -0.028528,-0.002785 -0.0542729,-0.002785 -0.0452274,0 -0.0765387,0.007653 -0.0313113,0.006958 -0.0514897,0.0201788 -0.0201784,0.0125241 -0.0292239,0.0313111 -0.009045,0.018787 -0.009045,0.0417481 0,0.0285282 0.0187868,0.0494028 0.0194826,0.0201782 0.0507939,0.0368775 0.0320071,0.0160035 0.0716681,0.0306152 0.0403568,0.0139164 0.0821052,0.0306158 0.0424442,0.0160035 0.0821052,0.0368775 0.040357,0.0208746 0.071668,0.050794 0.032007,0.0299199 0.050794,0.0709721 0.019483,0.0403569 0.019483,0.0960215 z"
     id="text4"
     style="-inkscape-font-specification:'Consolas Bold';fill:#ffffff;stroke-width:0.224412;stroke-linecap:round;stroke-linejoin:round;paint-order:stroke markers fill"
     aria-label="S" />
</svg>
