<?xml version="1.0" encoding="UTF-8" standalone="no"?>
<!-- Uploaded to: SVG Repo, www.svgrepo.com, Generator: SVG Repo Mixer Tools -->

<svg
   fill="#000000"
   width="16"
   height="16"
   viewBox="0 0 0.64 0.64"
   id="icon"
   version="1.1"
   sodipodi:docname="split_minus.svg"
   inkscape:version="1.4 (86a8ad7, 2024-10-11)"
   inkscape:export-filename="split_rminus.svg"
   inkscape:export-xdpi="96"
   inkscape:export-ydpi="96"
   xmlns:inkscape="http://www.inkscape.org/namespaces/inkscape"
   xmlns:sodipodi="http://sodipodi.sourceforge.net/DTD/sodipodi-0.dtd"
   xmlns="http://www.w3.org/2000/svg"
   xmlns:svg="http://www.w3.org/2000/svg"
   xmlns:rdf="http://www.w3.org/1999/02/22-rdf-syntax-ns#"
   xmlns:cc="http://creativecommons.org/ns#"
   xmlns:dc="http://purl.org/dc/elements/1.1/">
  <sodipodi:namedview
     id="namedview2"
     pagecolor="#505050"
     bordercolor="#eeeeee"
     borderopacity="1"
     inkscape:showpageshadow="0"
     inkscape:pageopacity="0"
     inkscape:pagecheckerboard="0"
     inkscape:deskcolor="#505050"
     inkscape:zoom="2"
     inkscape:cx="35.5"
     inkscape:cy="58.25"
     inkscape:window-width="1287"
     inkscape:window-height="745"
     inkscape:window-x="65"
     inkscape:window-y="-8"
     inkscape:window-maximized="1"
     inkscape:current-layer="icon">
    <inkscape:page
       x="0"
       y="0"
       width="0.63999999"
       height="0.63999999"
       id="page2"
       margin="0"
       bleed="0" />
  </sodipodi:namedview>
  <defs
     id="defs1">
    <style
       id="style1">.cls-1{fill:none;}</style>
  </defs>
  <title
     id="title1">split-screen</title>
  <path
     d="M 0.56545451,0.18934056 H 0.07454553 V 0.06233518 h 0.49090898 v 0.12700536 m 0.0545455,0 V 0.06233518 A 0.05454544,0.04233513 0 0 0 0.56545451,0.02000005 H 0.07454553 A 0.05454544,0.04233513 0 0 0 0.02,0.06233517 v 0.12700534 a 0.05454544,0.04233513 0 0 0 0.05454553,0.0423352 h 0.49090898 a 0.05454544,0.04233513 0 0 0 0.0545455,-0.0423352 z"
     id="path1"
     style="fill:#00ffff;fill-opacity:1;stroke-width:0.0255591;stroke-dasharray:none" />
  <path
     d="M 0.56545451,0.57766493 H 0.07454553 v -0.1270054 h 0.49090898 v 0.12700538 m 0.0545455,0 V 0.45065953 A 0.05454544,0.04233513 0 0 0 0.56545451,0.40832438 H 0.07454553 A 0.05454544,0.04233513 0 0 0 0.02,0.45065953 V 0.5776649 A 0.05454544,0.04233513 0 0 0 0.07454553,0.62 h 0.49090898 a 0.05454544,0.04233513 0 0 0 0.0545455,-0.0423351 z"
     id="path2"
     style="fill:#00ffff;stroke-width:0.0240271" />
  <rect
     x="-0.38090447"
     y="0.050016876"
     width="0.11920302"
     height="0.53915524"
     id="rect1-9-5"
     style="fill:#ff0000;stroke-width:0.0416635"
     ry="0.066325948"
     transform="rotate(-90)" />
  <metadata
     id="metadata2">
    <rdf:RDF>
      <cc:Work
         rdf:about="">
        <dc:title>split-screen</dc:title>
      </cc:Work>
    </rdf:RDF>
  </metadata>
</svg>
